<svg xmlns="http://www.w3.org/2000/svg" xmlns:xlink="http://www.w3.org/1999/xlink" viewBox="0 0 196.9 196.9"><defs><style>.cls-1{fill:url(#Gradiente_sem_nome_41);}.cls-2{fill:#fff;}</style><linearGradient id="Gradiente_sem_nome_41" x1="365.73" y1="150.58" x2="562.64" y2="150.58" gradientTransform="translate(-365.73 -52.13)" gradientUnits="userSpaceOnUse"><stop offset="0" stop-color="#1f4c75"/><stop offset="0.21" stop-color="#1d6689"/><stop offset="0.5" stop-color="#1b85a3"/><stop offset="0.66" stop-color="#1a91ac"/></linearGradient></defs><title>PYDAP-ICO</title><g id="Camada_2" data-name="Camada 2"><g id="Camada_1-2" data-name="Camada 1"><rect class="cls-1" width="196.9" height="196.9" rx="27.82" ry="27.82" transform="translate(0 196.9) rotate(-90)"/><path class="cls-2" d="M130.9,75.18A41.91,41.91,0,0,0,117,68.25a64.52,64.52,0,0,0-18.71-2.49H47.45a11.71,11.71,0,0,0-9.2,4.47h0a11.71,11.71,0,0,0,9.2,19h53.42q6.46,0,10,2.76a9,9,0,0,1,3.57,7.47A9.13,9.13,0,0,1,110.9,107q-3.57,2.83-10,2.83H23.32V142a13.87,13.87,0,0,0,13.87,13.87h0A13.87,13.87,0,0,0,51.06,142v-9.16H98.18a66.19,66.19,0,0,0,18.71-2.42,43.34,43.34,0,0,0,13.94-6.73,28.46,28.46,0,0,0,8.68-10.43,31,31,0,0,0,3-13.67,31.44,31.44,0,0,0-3-13.73A29.75,29.75,0,0,0,130.9,75.18Z"/><path class="cls-2" d="M143.12,21.73l7.37,10.46a19.93,19.93,0,0,0,13.3,8.23l12.65,1.92L166,49.69A19.93,19.93,0,0,0,157.75,63l-1.92,12.65-7.37-10.46A19.93,19.93,0,0,0,135.16,57L122.52,55,133,47.67a19.93,19.93,0,0,0,8.23-13.3Z"/></g></g></svg>
