<svg xmlns="http://www.w3.org/2000/svg" xmlns:xlink="http://www.w3.org/1999/xlink" viewBox="0 0 913.87 130.35"><defs><style>.cls-1{fill:url(#Gradiente_sem_nome_38);}.cls-2{fill:url(#Gradiente_sem_nome_38-2);}.cls-3{fill:url(#Gradiente_sem_nome_38-3);}.cls-4{fill:url(#Gradiente_sem_nome_38-4);}</style><linearGradient id="Gradiente_sem_nome_38" x1="84.83" y1="117.93" x2="84.83" y2="-72.34" gradientUnits="userSpaceOnUse"><stop offset="0" stop-color="#1f4c75"/><stop offset="0.21" stop-color="#1d6689"/><stop offset="0.5" stop-color="#1b85a3"/><stop offset="0.66" stop-color="#1a91ac"/></linearGradient><linearGradient id="Gradiente_sem_nome_38-2" x1="357.81" y1="117.93" x2="357.81" y2="-72.34" xlink:href="#Gradiente_sem_nome_38"/><linearGradient id="Gradiente_sem_nome_38-3" x1="630.67" y1="117.93" x2="630.67" y2="-72.34" xlink:href="#Gradiente_sem_nome_38"/><linearGradient id="Gradiente_sem_nome_38-4" x1="54.47" y1="117.93" x2="54.47" y2="-72.34" gradientTransform="translate(774.58)" xlink:href="#Gradiente_sem_nome_38"/></defs><title>PYDAP</title><g id="Camada_2" data-name="Camada 2"><g id="Camada_1-2" data-name="Camada 1"><path class="cls-1" d="M153.17,15.53a59.67,59.67,0,0,0-19.74-9.87,91.87,91.87,0,0,0-26.65-3.55H34.36a16.68,16.68,0,0,0-13.1,6.36h0a16.68,16.68,0,0,0,13.1,27h76.06q9.2,0,14.28,3.93A12.75,12.75,0,0,1,129.78,50a13,13,0,0,1-5.08,10.73q-5.08,4-14.28,4H0v45.82a19.74,19.74,0,0,0,19.74,19.74h0a19.74,19.74,0,0,0,19.74-19.74v-13h67.09a94.24,94.24,0,0,0,26.65-3.45,61.71,61.71,0,0,0,19.84-9.58,40.52,40.52,0,0,0,12.36-14.86,44.13,44.13,0,0,0,4.22-19.46,44.77,44.77,0,0,0-4.22-19.55A42.35,42.35,0,0,0,153.17,15.53Z"/><path class="cls-2" d="M522.73,65A56.38,56.38,0,0,0,517,39.59a59.59,59.59,0,0,0-16-19.94A75,75,0,0,0,476.53,6.71a100.23,100.23,0,0,0-31.06-4.6H313.58L284.45,37.57q-6.9,8.44-10.54,13t-5.56,7.28q-1-1.34-3.26-4t-5-5.75q-2.69-3.06-5.18-5.85l-4-4.5L225.83,8.62a18.71,18.71,0,0,0-14.18-6.51h0c-16.26,0-24.78,19.31-13.82,31.32L247.45,87.8v22.62a19.94,19.94,0,0,0,19.94,19.94h0a19.94,19.94,0,0,0,19.94-19.94V88l46.55-52.53H445.47a45.31,45.31,0,0,1,15,2.4,40.6,40.6,0,0,1,12.08,6.52,29.22,29.22,0,0,1,8.05,9.87,28.65,28.65,0,0,1,0,25,29.54,29.54,0,0,1-7.86,9.68,36.11,36.11,0,0,1-12,6.23,50.46,50.46,0,0,1-15.24,2.21h-46v-27a19.94,19.94,0,0,0-19.94-19.94h0a19.94,19.94,0,0,0-19.94,19.94v60h85.88a92.44,92.44,0,0,0,30.86-5,76.31,76.31,0,0,0,24.44-13.71A63.47,63.47,0,0,0,516.88,91,58.44,58.44,0,0,0,522.73,65Z"/><path class="cls-3" d="M638,4.12Q632,0,623,0q-9.39,0-15.53,4.41a44.36,44.36,0,0,0-10.16,10l-60.81,85.75a19.15,19.15,0,0,0,15.62,30.23h0a19.15,19.15,0,0,0,15.63-8.09l54.47-77,23,33.93q3.26,4.6,6.8,9.87t6.23,8.72q-4.6-.38-10.83-.38H611.64a16.49,16.49,0,0,0-13.34,6.79h0a16.49,16.49,0,0,0,13.34,26.18H728.42l-80.13-116A39.21,39.21,0,0,0,638,4.12Z"/><path class="cls-4" d="M909.66,30.67a42.36,42.36,0,0,0-12.27-15.14,59.68,59.68,0,0,0-19.75-9.87A91.87,91.87,0,0,0,851,2.11H778.58a16.68,16.68,0,0,0-13.1,6.36h0a16.68,16.68,0,0,0,13.1,27h76.06q9.2,0,14.28,3.93A12.75,12.75,0,0,1,874,50a13,13,0,0,1-5.08,10.73q-5.08,4-14.28,4H744.22v45.82A19.75,19.75,0,0,0,764,130.35h0a19.75,19.75,0,0,0,19.75-19.75v-13H850.8a94.24,94.24,0,0,0,26.65-3.45,61.7,61.7,0,0,0,19.84-9.58,40.52,40.52,0,0,0,12.37-14.86,44.13,44.13,0,0,0,4.22-19.46A44.77,44.77,0,0,0,909.66,30.67Z"/></g></g></svg>
